<?xml version="1.0" encoding="utf-8"?>
<!-- Generator: Adobe Illustrator 23.0.6, SVG Export Plug-In . SVG Version: 6.00 Build 0)  -->
<svg version="1.1" id="Outline" xmlns="http://www.w3.org/2000/svg" xmlns:xlink="http://www.w3.org/1999/xlink" x="0px" y="0px"
	 viewBox="0 0 512 512" style="enable-background:new 0 0 512 512;" xml:space="preserve">
<style type="text/css">
	.st0{fill:#FFFFFF;}
</style>
<path class="st0" d="M448,128h-64C384,57.3,326.7,0,256,0S128,57.3,128,128H64c-35.3,0-64,28.7-64,64v213.3
	C0.1,464.2,47.8,511.9,106.7,512h298.7c58.9-0.1,106.6-47.8,106.7-106.7V192C512,156.7,483.3,128,448,128z M256,42.7
	c47.1,0,85.3,38.2,85.3,85.3H170.7C170.7,80.9,208.9,42.7,256,42.7z M469.3,405.3c0,35.3-28.7,64-64,64H106.7c-35.3,0-64-28.7-64-64
	V192c0-11.8,9.6-21.3,21.3-21.3h64v42.7c0,11.8,9.6,21.3,21.3,21.3s21.3-9.6,21.3-21.3v-42.7h170.7v42.7c0,11.8,9.6,21.3,21.3,21.3
	c11.8,0,21.3-9.6,21.3-21.3v-42.7h64c11.8,0,21.3,9.6,21.3,21.3V405.3z"/>
</svg>
