<?xml version="1.0" encoding="utf-8"?>
<!-- Generator: Adobe Illustrator 23.0.6, SVG Export Plug-In . SVG Version: 6.00 Build 0)  -->
<svg version="1.1" id="Layer_1" xmlns="http://www.w3.org/2000/svg" xmlns:xlink="http://www.w3.org/1999/xlink" x="0px" y="0px"
	 viewBox="0 0 28.9 24.8" style="enable-background:new 0 0 28.9 24.8;" xml:space="preserve">
<style type="text/css">
	.st0{fill:#FFF9CE;}
</style>
<path class="st0" d="M28.8,7.5C28.5,5,27,2.9,24.9,1.6c-0.1-0.1-0.2-0.2-0.4-0.2c-0.1-0.1-0.3-0.1-0.4-0.2c-3.5-1.5-7.2-0.6-9.5,2
	c-1.3-1.5-2.9-2.7-5-3.1C6.5-0.4,3.2,0.8,1.4,3.5c-1.9,2.8-1.7,6.6-0.4,9.6c1.1,2.6,3.2,4.8,5.3,6.6c2.4,2.1,5.1,4.2,8.2,5
	c0,0,0,0,0,0c0,0,0.1,0,0.1,0c0,0,0,0,0,0c0.2,0,0.4,0.1,0.5,0c0.1,0,0.3,0,0.4,0c0,0,0,0,0.1,0c0,0,0,0,0,0c0,0-0.1,0-0.1,0
	c0,0,0.1,0,0.1,0c0,0,0,0,0,0c2.4-0.5,4.5-2.1,6.2-3.8c2-1.8,3.7-3.9,5.2-6.2C28.4,12.6,29.2,10.2,28.8,7.5z M23.2,13.7
	c-1.2,1.7-2.5,3.3-4,4.6c-1.2,1.1-2.5,2.2-4,2.6c-2.3-0.7-4.4-2.4-6.2-3.9c-2-1.8-4.2-3.9-4.9-6.4C3.3,8,3.9,4.8,6.8,3.9
	c2.6-0.8,5.1,1,6,3.4c0.7,1.7,3,1.8,3.6,0c0.9-2.6,3.6-3.9,6.1-2.7c0,0,0,0,0,0c1.5,0.8,2.5,2.3,2.6,4
	C25.3,10.6,24.3,12.1,23.2,13.7z"/>
</svg>
