<?xml version="1.0" encoding="utf-8"?>
<!-- Generator: Adobe Illustrator 23.0.6, SVG Export Plug-In . SVG Version: 6.00 Build 0)  -->
<svg version="1.1" id="Layer_1" xmlns="http://www.w3.org/2000/svg" xmlns:xlink="http://www.w3.org/1999/xlink" x="0px" y="0px"
	 viewBox="0 0 229 122" style="enable-background:new 0 0 229 122;" xml:space="preserve">
<style type="text/css">
	.st0{fill:#1E3A5F;}
</style>
<path class="st0" d="M224.2,5c-1.5-1.6-3.3-2.9-5.3-3.7c-2-0.9-4.1-1.3-6.3-1.3s-4.3,0.4-6.3,1.3c-2,0.9-3.8,2.1-5.3,3.7l-74.9,77.9
	c-1.5,1.6-3.3,2.9-5.3,3.7c-2,0.9-4.1,1.3-6.3,1.3s-4.3-0.4-6.3-1.3s-3.8-2.1-5.3-3.7L28,5c-1.5-1.6-3.3-2.9-5.3-3.7
	c-2-0.9-4.1-1.3-6.3-1.3c-2.2,0-4.3,0.4-6.3,1.3C8.1,2.2,6.3,3.4,4.8,5C1.7,8.2,0,12.5,0,17c0,4.5,1.7,8.8,4.8,12l75.1,78.1
	c9.2,9.6,21.7,14.9,34.7,14.9s25.5-5.4,34.7-14.9L224.2,29c3-3.2,4.8-7.5,4.8-12C229,12.5,227.3,8.2,224.2,5z"/>
</svg>
