<?xml version="1.0" encoding="utf-8"?>
<!-- Generator: Adobe Illustrator 23.0.6, SVG Export Plug-In . SVG Version: 6.00 Build 0)  -->
<svg version="1.1" id="Layer_1" xmlns="http://www.w3.org/2000/svg" xmlns:xlink="http://www.w3.org/1999/xlink" x="0px" y="0px"
	 viewBox="0 0 35 25" style="enable-background:new 0 0 35 25;" xml:space="preserve">
<style type="text/css">
	.st0{fill:#F26B6C;}
</style>
<path class="st0" d="M33.2,13.3c-1.2-1.3-2.7-2.1-4.6-2.3c0-3-1.1-5.6-3.2-7.8C23.2,1.1,20.6,0,17.5,0c-2.5,0-4.8,0.7-6.8,2.2
	S7.4,5.7,6.8,8c-2,0.4-3.6,1.5-4.9,3S0,14.5,0,16.5c0,2.4,0.9,4.4,2.6,6C4.3,24.2,6.3,25,8.8,25h19.1c2,0,3.7-0.7,5.1-2.1
	s2.1-3,2.1-5C35,16.2,34.4,14.6,33.2,13.3z M30.7,20.7c-0.8,0.8-1.7,1.1-2.8,1.1H8.8c-1.5,0-2.9-0.5-3.9-1.6s-1.6-2.4-1.6-3.9
	s0.5-2.8,1.6-3.9s2.4-1.6,3.9-1.6h0.8c0-2.2,0.8-4,2.3-5.5c1.6-1.5,3.4-2.3,5.6-2.3s4.1,0.8,5.6,2.3c1.6,1.5,2.3,3.4,2.3,5.5v3.1
	h2.4c1.1,0,2.1,0.4,2.8,1.1c0.8,0.8,1.2,1.7,1.2,2.8S31.4,20,30.7,20.7z"/>
</svg>
