<?xml version="1.0" encoding="utf-8"?>
<!-- Generator: Adobe Illustrator 23.0.6, SVG Export Plug-In . SVG Version: 6.00 Build 0)  -->
<svg version="1.1" id="Layer_1" xmlns="http://www.w3.org/2000/svg" xmlns:xlink="http://www.w3.org/1999/xlink" x="0px" y="0px"
	 viewBox="0 0 50 50" style="enable-background:new 0 0 50 50;" xml:space="preserve">
<style type="text/css">
	.st0{clip-path:url(#SVGID_2_);}
	.st1{fill:#F9BA10;}
	.st2{fill:#FF2F31;}
	.st3{fill:#73C338;}
</style>
<g>
	<defs>
		<rect id="SVGID_1_" width="50" height="50"/>
	</defs>
	<clipPath id="SVGID_2_">
		<use xlink:href="#SVGID_1_"  style="overflow:visible;"/>
	</clipPath>
	<g class="st0">
		<path class="st1" d="M25,0C11.2,0,0,11.2,0,25s11.2,25,25,25s25-11.2,25-25S38.8,0,25,0z M24.7,30.4h-7.1c-3,0-5.4-2.4-5.4-5.4
			s2.4-5.4,5.4-5.4h7.1V30.4z M32.5,19h-7.1V8.2h7.1c3,0,5.4,2.4,5.4,5.4S35.5,19,32.5,19z"/>
		<path class="st2" d="M24.5,31h-6.6c-2.7,0-5.1,1.8-5.6,4.5c-0.6,3.4,1.4,5.9,5.4,6.4l0.8-0.1c0.5,0,1-0.2,1.5-0.4l0.9-0.4
			c2.4-1.3,3.7-3.1,3.7-5.5L24.5,31L24.5,31z"/>
		<path class="st3" d="M30.5,30.2c2.9,0,5.2-2.3,5.2-5.2c0-2.9-2.3-5.2-5.2-5.2c-2.9,0-5.2,2.3-5.2,5.2
			C25.3,27.9,27.7,30.2,30.5,30.2z"/>
		<path class="st2" d="M24.7,8.2h-7.1c-3,0-5.4,2.4-5.4,5.4s2.4,5.4,5.4,5.4h7.1V8.2z"/>
	</g>
</g>
</svg>
