<?xml version="1.0" encoding="utf-8"?>
<!-- Generator: Adobe Illustrator 23.0.6, SVG Export Plug-In . SVG Version: 6.00 Build 0)  -->
<svg version="1.1" id="Layer_1" xmlns="http://www.w3.org/2000/svg" xmlns:xlink="http://www.w3.org/1999/xlink" x="0px" y="0px"
	 viewBox="0 0 51 51" style="enable-background:new 0 0 51 51;" xml:space="preserve">
<style type="text/css">
	.st0{clip-path:url(#SVGID_2_);}
	.st1{fill:#F26B6C;}
</style>
<g>
	<defs>
		<rect id="SVGID_1_" x="0.5" width="50" height="50"/>
	</defs>
	<clipPath id="SVGID_2_">
		<use xlink:href="#SVGID_1_"  style="overflow:visible;"/>
	</clipPath>
	<g class="st0">
		<path class="st1" d="M25,50c0.1,0,0.3,0,0.5,0c0.8,0,1.7,0,2.5-0.1C26.9,49.9,25.9,50,25,50z"/>
		<path class="st1" d="M25.5,0c-13.8,0-25,11.2-25,25c0,11.3,7.5,20.8,17.7,23.9l0.2-0.6L18.3,44c0,0-2.5,0-4.4-0.7
			c-1.7-0.6-2.9-2.6-3.7-4c0,0-1.2-2.2-3.5-3.1c-0.4-0.2,0-0.9,0.7-0.9s2.9,0.5,3.4,1c0.5,0.5,1.4,1.6,2.1,2.5
			c0.8,1.1,1.3,1.4,2.6,1.8c1.3,0.4,3.1,0,3.1,0s0.7-3,1.4-4.1c-1.7-0.1-6.4-1.3-7.2-2.6c0,0-2.6-1.4-3.4-7s2.5-9.1,2.5-9.1
			s-1.3-2.3,0-6.4c0,0,5.5,0.1,7.3,2.5c0,0,1.8-0.4,6.2-0.4s6.2,0.5,6.2,0.5s3.4-3.3,7.3-3.3c0,0,1,4.3-0.1,7.7c0,0,3.5,3,2.1,10.6
			C39.2,36.6,30,36.7,30,36.7s1,1.8,1.2,3c0.1,1.2,1,7.2,0.4,9l0.3,0.5C42.6,46.3,50.5,36.6,50.5,25C50.5,11.2,39.3,0,25.5,0z"/>
	</g>
</g>
</svg>
