<?xml version="1.0" encoding="utf-8"?>
<!-- Generator: Adobe Illustrator 23.0.6, SVG Export Plug-In . SVG Version: 6.00 Build 0)  -->
<svg version="1.1" id="Layer_1" xmlns="http://www.w3.org/2000/svg" xmlns:xlink="http://www.w3.org/1999/xlink" x="0px" y="0px"
	 viewBox="0 0 20 20" style="enable-background:new 0 0 20 20;" xml:space="preserve">
<style type="text/css">
	.st0{clip-path:url(#SVGID_2_);}
	.st1{fill:#1E3A5F;}
</style>
<g>
	<defs>
		<rect id="SVGID_1_" width="20" height="20"/>
	</defs>
	<clipPath id="SVGID_2_">
		<use xlink:href="#SVGID_1_"  style="overflow:visible;"/>
	</clipPath>
	<g class="st0">
		<path class="st1" d="M3.3,0h2.5c1.8,0,3.3,1.5,3.3,3.3v2.5c0,1.8-1.5,3.3-3.3,3.3H3.3C1.5,9.2,0,7.7,0,5.8V3.3C0,1.5,1.5,0,3.3,0z
			"/>
		<path class="st1" d="M14.2,0h2.5C18.5,0,20,1.5,20,3.3v2.5c0,1.8-1.5,3.3-3.3,3.3h-2.5c-1.8,0-3.3-1.5-3.3-3.3V3.3
			C10.8,1.5,12.3,0,14.2,0z"/>
		<path class="st1" d="M3.3,10.8h2.5c1.8,0,3.3,1.5,3.3,3.3v2.5c0,1.8-1.5,3.3-3.3,3.3H3.3C1.5,20,0,18.5,0,16.7v-2.5
			C0,12.3,1.5,10.8,3.3,10.8z"/>
		<path class="st1" d="M14.2,10.8h2.5c1.8,0,3.3,1.5,3.3,3.3v2.5c0,1.8-1.5,3.3-3.3,3.3h-2.5c-1.8,0-3.3-1.5-3.3-3.3v-2.5
			C10.8,12.3,12.3,10.8,14.2,10.8z"/>
	</g>
</g>
</svg>
