<?xml version="1.0" encoding="utf-8"?>
<!-- Generator: Adobe Illustrator 23.0.6, SVG Export Plug-In . SVG Version: 6.00 Build 0)  -->
<svg version="1.1" id="Layer_1" xmlns="http://www.w3.org/2000/svg" xmlns:xlink="http://www.w3.org/1999/xlink" x="0px" y="0px"
	 viewBox="0 0 35 30" style="enable-background:new 0 0 35 30;" xml:space="preserve">
<style type="text/css">
	.st0{fill:#F26B6C;}
</style>
<g>
	<path class="st0" d="M8.6,23.3c-0.2-0.4-0.6-0.6-1-0.8s-0.9-0.1-1.3,0.1c-0.4,0.2-0.7,0.5-0.9,0.9c-0.2,0.4-0.1,0.8,0.1,1.1
		l2.6,4.5c0.2,0.4,0.6,0.6,1,0.8c0.5,0.1,0.9,0.1,1.3-0.1s0.7-0.5,0.9-0.9s0.1-0.8-0.1-1.1L8.6,23.3z"/>
	<path class="st0" d="M19.1,23.3c-0.2-0.4-0.6-0.6-1-0.8s-0.9-0.1-1.3,0.1c-0.4,0.2-0.7,0.5-0.9,0.9c-0.2,0.4-0.1,0.8,0.1,1.1
		l2.6,4.5c0.2,0.4,0.6,0.6,1,0.8c0.5,0.1,0.9,0.1,1.3-0.1s0.7-0.5,0.9-0.9s0.1-0.8-0.1-1.1L19.1,23.3z"/>
	<path class="st0" d="M32.9,9.7c-1.4-1.3-3.1-2-5.1-2.1c-0.4-2.1-1.6-3.9-3.5-5.4C22.4,0.7,20.1,0,17.5,0c-1.9,0-3.7,0.4-5.3,1.2
		C10.6,2,9.3,3.1,8.4,4.6C6,4.8,4,5.8,2.4,7.3C0.8,8.9,0,10.7,0,12.7C0,15,0.9,17,2.8,18.6S7,21,9.6,21h17.5c2.2,0,4-0.7,5.6-2
		s2.3-2.9,2.3-4.8C35,12.5,34.3,10.9,32.9,9.7z M30.2,16.9c-0.8,0.7-1.9,1.1-3.1,1.1H9.6c-1.7,0-3.1-0.5-4.3-1.5
		c-1.2-1-1.8-2.3-1.8-3.7c0-1.4,0.6-2.6,1.8-3.7c1.2-1,2.6-1.5,4.3-1.6h1.1l0.4-0.9c0.6-1.1,1.5-2,2.6-2.6c1.2-0.6,2.4-1,3.8-1
		c1.9,0,3.6,0.6,4.9,1.8c1.4,1.2,2.1,2.6,2.1,4.2v1.5h2.6c1.2,0,2.3,0.4,3.1,1.1c0.8,0.7,1.3,1.6,1.3,2.7
		C31.5,15.3,31.1,16.2,30.2,16.9z"/>
	<path class="st0" d="M29.6,23.3c-0.2-0.4-0.6-0.6-1-0.8s-0.9-0.1-1.3,0.1c-0.4,0.2-0.7,0.5-0.9,0.9c-0.2,0.4-0.1,0.8,0.1,1.1
		l2.6,4.5c0.2,0.4,0.6,0.6,1,0.8c0.5,0.1,0.9,0.1,1.3-0.1s0.7-0.5,0.9-0.9s0.1-0.8-0.1-1.1L29.6,23.3z"/>
</g>
</svg>
