<?xml version="1.0" encoding="utf-8"?>
<!-- Generator: Adobe Illustrator 23.0.6, SVG Export Plug-In . SVG Version: 6.00 Build 0)  -->
<svg version="1.1" id="Layer_1" xmlns="http://www.w3.org/2000/svg" xmlns:xlink="http://www.w3.org/1999/xlink" x="0px" y="0px"
	 viewBox="0 0 20 20" style="enable-background:new 0 0 20 20;" xml:space="preserve">
<style type="text/css">
	.st0{clip-path:url(#SVGID_2_);}
	.st1{fill:#1E3A5F;}
</style>
<g>
	<defs>
		<rect id="SVGID_1_" width="20" height="20"/>
	</defs>
	<clipPath id="SVGID_2_">
		<use xlink:href="#SVGID_1_"  style="overflow:visible;"/>
	</clipPath>
	<g class="st0">
		<path class="st1" d="M17.5,5H15c0-1.3-0.5-2.6-1.5-3.5C12.6,0.5,11.3,0,10,0C8.7,0,7.4,0.5,6.5,1.5C5.5,2.4,5,3.7,5,5H2.5
			C1.8,5,1.2,5.3,0.7,5.7C0.3,6.2,0,6.8,0,7.5v8.3c0,1.1,0.4,2.2,1.2,2.9C2,19.6,3.1,20,4.2,20h11.7c1.1,0,2.2-0.4,2.9-1.2
			c0.8-0.8,1.2-1.8,1.2-2.9V7.5c0-0.7-0.3-1.3-0.7-1.8C18.8,5.3,18.2,5,17.5,5z M10,1.7c0.9,0,1.7,0.4,2.4,1c0.6,0.6,1,1.5,1,2.4
			H6.7c0-0.9,0.4-1.7,1-2.4S9.1,1.7,10,1.7z M18.3,15.8c0,0.7-0.3,1.3-0.7,1.8c-0.5,0.5-1.1,0.7-1.8,0.7H4.2c-0.7,0-1.3-0.3-1.8-0.7
			c-0.5-0.5-0.7-1.1-0.7-1.8V7.5c0-0.2,0.1-0.4,0.2-0.6s0.4-0.2,0.6-0.2H5v1.7c0,0.2,0.1,0.4,0.2,0.6c0.2,0.2,0.4,0.2,0.6,0.2
			c0.2,0,0.4-0.1,0.6-0.2c0.2-0.2,0.2-0.4,0.2-0.6V6.7h6.7v1.7c0,0.2,0.1,0.4,0.2,0.6c0.2,0.2,0.4,0.2,0.6,0.2
			c0.2,0,0.4-0.1,0.6-0.2C14.9,8.8,15,8.6,15,8.3V6.7h2.5c0.2,0,0.4,0.1,0.6,0.2c0.2,0.2,0.2,0.4,0.2,0.6V15.8z"/>
	</g>
</g>
</svg>
