<?xml version="1.0" encoding="utf-8"?>
<!-- Generator: Adobe Illustrator 23.0.6, SVG Export Plug-In . SVG Version: 6.00 Build 0)  -->
<svg version="1.1" id="Layer_1" xmlns="http://www.w3.org/2000/svg" xmlns:xlink="http://www.w3.org/1999/xlink" x="0px" y="0px"
	 viewBox="0 0 40 40" style="enable-background:new 0 0 40 40;" xml:space="preserve">
<style type="text/css">
	.st0{fill:#FFF9CF;}
</style>
<path class="st0" d="M18,31.7l-5.2,5c-0.4,0.4-0.8,0.6-1.4,0.6s-1-0.2-1.4-0.6c-0.4-0.4-0.6-0.8-0.6-1.4s0.2-1,0.6-1.4L18,26v-4h-4
	l-8,8c-0.4,0.4-0.8,0.5-1.4,0.5s-1-0.2-1.4-0.6c-0.4-0.4-0.6-0.8-0.6-1.4c0-0.5,0.2-1,0.6-1.4l5-5.2H1.9c-0.6,0-1-0.2-1.4-0.6
	S0,20.6,0,20c0-0.6,0.2-1,0.6-1.4S1.4,18,2,18h6.3l-5-5.1c-0.4-0.4-0.6-0.8-0.6-1.4s0.2-1,0.6-1.4c0.4-0.4,0.8-0.6,1.4-0.6
	s1,0.2,1.4,0.6L14,18h4v-4l-8-7.9C9.7,5.7,9.5,5.3,9.5,4.7s0.2-1,0.6-1.4c0.4-0.4,0.8-0.6,1.4-0.6s1,0.2,1.4,0.6l5.2,5V2
	c0-0.6,0.2-1,0.6-1.4C19,0.2,19.4,0,20,0s1,0.2,1.4,0.6C21.8,1,22,1.4,22,2v6.3l5.1-5c0.4-0.4,0.8-0.6,1.4-0.6s1,0.2,1.4,0.6
	c0.4,0.4,0.6,0.9,0.6,1.4s-0.2,1-0.6,1.4L22,14v4h4l7.9-7.9c0.4-0.4,0.8-0.6,1.4-0.6s1,0.2,1.4,0.6c0.4,0.4,0.5,0.8,0.5,1.4
	s-0.2,1-0.5,1.4l-5,5.1H38c0.6,0,1,0.2,1.4,0.6C39.8,19,40,19.4,40,20c0,0.6-0.2,1-0.6,1.4C39,21.8,38.6,22,38,22h-6.3l5,5.2
	c0.4,0.4,0.5,0.8,0.5,1.4c0,0.6-0.2,1-0.5,1.4c-0.4,0.4-0.9,0.6-1.4,0.6s-1-0.2-1.4-0.6L26,22h-4v4l7.9,8c0.4,0.4,0.6,0.8,0.6,1.4
	s-0.2,1-0.6,1.4c-0.4,0.4-0.8,0.6-1.4,0.6s-1-0.2-1.4-0.6l-5.1-5v6.3c0,0.6-0.2,1-0.6,1.4C21,39.8,20.6,40,20,40s-1-0.2-1.4-0.6
	C18.2,39,18,38.6,18,38V31.7z"/>
</svg>
