<?xml version="1.0" encoding="utf-8"?>
<!-- Generator: Adobe Illustrator 23.0.6, SVG Export Plug-In . SVG Version: 6.00 Build 0)  -->
<svg version="1.1" id="Layer_1" xmlns="http://www.w3.org/2000/svg" xmlns:xlink="http://www.w3.org/1999/xlink" x="0px" y="0px"
	 viewBox="0 0 118.9 118.9" style="enable-background:new 0 0 118.9 118.9;" xml:space="preserve">
<style type="text/css">
	.st0{fill:#1E3A5F;}
</style>
<path class="st0" d="M109,94.2c0,3.9-1.6,7.7-4.4,10.5c-2.8,2.8-6.6,4.4-10.5,4.4H24.8c-3.9,0-7.7-1.6-10.5-4.4
	c-2.8-2.8-4.4-6.6-4.4-10.5V44.6c0-1.3,0.5-2.6,1.5-3.5c0.9-0.9,2.2-1.5,3.5-1.5h14.9v9.9c0,1.3,0.5,2.6,1.5,3.5
	c0.9,0.9,2.2,1.5,3.5,1.5c1.3,0,2.6-0.5,3.5-1.5c0.9-0.9,1.5-2.2,1.5-3.5v-9.9h39.6v9.9c0,1.3,0.5,2.6,1.5,3.5
	c0.9,0.9,2.2,1.5,3.5,1.5c1.3,0,2.6-0.5,3.5-1.5c0.9-0.9,1.5-2.2,1.5-3.5v-9.9h14.9c1.3,0,2.6,0.5,3.5,1.5c0.9,0.9,1.5,2.2,1.5,3.5
	V94.2z M59.5,9.9c5.3,0,10.3,2.1,14,5.8c3.7,3.7,5.8,8.8,5.8,14H39.6c0-5.3,2.1-10.3,5.8-14C49.2,12,54.2,9.9,59.5,9.9z M104.1,29.7
	H89.2c0-7.9-3.1-15.4-8.7-21C74.9,3.1,67.4,0,59.5,0c-7.9,0-15.4,3.1-21,8.7c-5.6,5.6-8.7,13.1-8.7,21H14.9c-3.9,0-7.7,1.6-10.5,4.4
	C1.6,36.9,0,40.7,0,44.6v49.6c0,6.6,2.6,12.9,7.3,17.5c4.6,4.6,10.9,7.3,17.5,7.3h69.4c6.6,0,12.9-2.6,17.5-7.3
	c4.6-4.6,7.3-10.9,7.3-17.5V44.6c0-3.9-1.6-7.7-4.4-10.5C111.8,31.3,108,29.7,104.1,29.7z"/>
</svg>
