<?xml version="1.0" encoding="utf-8"?>
<!-- Generator: Adobe Illustrator 23.0.6, SVG Export Plug-In . SVG Version: 6.00 Build 0)  -->
<svg version="1.1" id="Layer_1" xmlns="http://www.w3.org/2000/svg" xmlns:xlink="http://www.w3.org/1999/xlink" x="0px" y="0px"
	 viewBox="0 0 131.2 87.5" style="enable-background:new 0 0 131.2 87.5;" xml:space="preserve">
<style type="text/css">
	.st0{fill:#1E3A5F;}
</style>
<path class="st0" d="M7.3,14.6c-2.1,0-3.8-0.7-5.2-2.1S0,9.4,0,7.3s0.7-3.8,2.1-5.2S5.2,0,7.3,0h116.7c2.1,0,3.8,0.7,5.2,2.1
	c1.4,1.4,2.1,3.1,2.1,5.2s-0.7,3.8-2.1,5.2c-1.4,1.4-3.1,2.1-5.2,2.1H7.3z M7.3,51c-2.1,0-3.8-0.7-5.2-2.1S0,45.8,0,43.7
	c0-2.1,0.7-3.8,2.1-5.2s3.1-2.1,5.2-2.1h116.7c2.1,0,3.8,0.7,5.2,2.1c1.4,1.4,2.1,3.1,2.1,5.2c0,2.1-0.7,3.8-2.1,5.2
	c-1.4,1.4-3.1,2.1-5.2,2.1H7.3z M7.3,87.5c-2.1,0-3.8-0.7-5.2-2.1C0.7,84,0,82.3,0,80.2s0.7-3.8,2.1-5.2c1.4-1.4,3.1-2.1,5.2-2.1
	h116.7c2.1,0,3.8,0.7,5.2,2.1c1.4,1.4,2.1,3.1,2.1,5.2s-0.7,3.8-2.1,5.2c-1.4,1.4-3.1,2.1-5.2,2.1H7.3z"/>
</svg>
