<?xml version="1.0" encoding="utf-8"?>
<!-- Generator: Adobe Illustrator 23.0.6, SVG Export Plug-In . SVG Version: 6.00 Build 0)  -->
<svg version="1.1" id="Layer_1" xmlns="http://www.w3.org/2000/svg" xmlns:xlink="http://www.w3.org/1999/xlink" x="0px" y="0px"
	 viewBox="0 0 118.4 118.4" style="enable-background:new 0 0 118.4 118.4;" xml:space="preserve">
<style type="text/css">
	.st0{fill:#1E3A5F;}
</style>
<g>
	<path class="st0" d="M59.2,57.1c7.9,0,14.5-2.7,20.2-8.4c5.6-5.6,8.4-12.2,8.4-20.2S85,14,79.4,8.4C73.7,2.7,67.1,0,59.2,0
		S44.7,2.7,39.1,8.4c-5.6,5.6-8.4,12.2-8.4,20.2s2.7,14.5,8.4,20.2C44.7,54.4,51.3,57.1,59.2,57.1z M46.9,16.2
		c3.4-3.4,7.5-5.1,12.3-5.1s8.9,1.7,12.3,5.1c3.4,3.4,5.1,7.5,5.1,12.3c0,4.8-1.7,8.9-5.1,12.3C68.1,44.3,64,46,59.2,46
		s-8.9-1.7-12.3-5.1c-3.4-3.4-5.1-7.5-5.1-12.3C41.8,23.8,43.5,19.6,46.9,16.2z"/>
	<path class="st0" d="M107.3,80.6c-7.7-3.9-15.7-6.8-23.7-8.7C75.7,70,67.4,69,59.2,69s-16.4,1-24.4,2.9c-8,1.9-16,4.9-23.7,8.7
		c-3.3,1.7-6,4.3-8.1,7.6c-2,3.3-3,6.9-3,10.9v6.1c0,3.7,1.3,6.7,3.9,9.3s5.7,3.9,9.3,3.9h92c3.7,0,6.7-1.3,9.3-3.9s3.9-5.7,3.9-9.3
		v-6.1c0-3.9-1-7.6-3-10.9C113.4,84.9,110.7,82.4,107.3,80.6z M107.3,107.3H11.1v-8.2c0-1.8,0.5-3.5,1.4-4.9
		c0.9-1.5,2.1-2.6,3.6-3.4c7.1-3.5,14.3-6.2,21.4-8c14.3-3.5,29.2-3.5,43.5,0c7.1,1.8,14.3,4.4,21.3,7.9c1.5,0.9,2.7,2,3.6,3.5
		c0.9,1.5,1.4,3.1,1.4,4.9V107.3z"/>
</g>
</svg>
