<?xml version="1.0" encoding="utf-8"?>
<!-- Generator: Adobe Illustrator 23.0.6, SVG Export Plug-In . SVG Version: 6.00 Build 0)  -->
<svg version="1.1" id="Layer_1" xmlns="http://www.w3.org/2000/svg" xmlns:xlink="http://www.w3.org/1999/xlink" x="0px" y="0px"
	 viewBox="0 0 141.4 141.4" style="enable-background:new 0 0 141.4 141.4;" xml:space="preserve">
<style type="text/css">
	.st0{fill:#F26B6C;}
	.st1{fill:#B1D7EC;}
	.st2{fill:#1E3A5F;}
</style>
<path class="st0" d="M91.8,53.8H71.6V23.1h20.2c8.5,0,15.4,6.9,15.4,15.4S100.2,53.8,91.8,53.8z M69.8,86H49.6
	c-8.5,0-15.4-6.9-15.4-15.4c0-8.5,6.9-15.4,15.4-15.4h20.2V86z M70.7,0C31.6,0,0,31.6,0,70.7s31.6,70.7,70.7,70.7
	c39,0,70.7-31.6,70.7-70.7S109.7,0,70.7,0z"/>
<path class="st1" d="M69.4,87.5H50.7c-7.6,0-14.4,5.2-15.8,12.7c-1.7,9.6,4.1,16.8,15.1,18l2.2-0.1c1.5-0.1,2.9-0.5,4.3-1.1l2.6-1.2
	c6.9-3.5,10.4-8.7,10.4-15.7L69.4,87.5L69.4,87.5z"/>
<ellipse transform="matrix(0.9239 -0.3827 0.3827 0.9239 -20.4759 38.4374)" class="st2" cx="86.4" cy="70.7" rx="14.8" ry="14.8"/>
<path class="st1" d="M69.8,23.1H49.6c-8.5,0-15.4,6.9-15.4,15.4s6.9,15.4,15.4,15.4h20.2V23.1z"/>
</svg>
