<?xml version="1.0" encoding="utf-8"?>
<!-- Generator: Adobe Illustrator 23.0.6, SVG Export Plug-In . SVG Version: 6.00 Build 0)  -->
<svg version="1.1" id="Layer_1" xmlns="http://www.w3.org/2000/svg" xmlns:xlink="http://www.w3.org/1999/xlink" x="0px" y="0px"
	 viewBox="0 0 360.9 152.2" style="enable-background:new 0 0 360.9 152.2;" xml:space="preserve">
<style type="text/css">
	.st0{fill:#F26B6C;}
	.st1{fill:#FFF9CE;}
</style>
<path class="st0" d="M340.6,49.3l15.9-9.7c-8.2-12.4-22.9-14.9-35.9-13.4c-12.4,1.5-25.2,6.7-36.2,12.8c-11.2,6.1-22,13.9-30.6,21.9
	c-7.8,7.3-16.6,17.3-19.1,27.9l17.8,1.3l17.8,1.3c0,0,1.4-3.3,8.1-9.5c5.9-5.5,13.7-11.2,21.9-15.6c8.4-4.6,15.7-7.1,20.5-7.7
	c2.3-0.3,3.4,0,3.6,0.1c0.1,0,0.1,0,0.3,0.3L340.6,49.3z M312.4,91.2l7.7,13.8c8.3-4.4,19.9-13,28.4-23c7.8-9.2,18.6-26.5,8-42.4
	l-15.9,9.7L324.7,59c-0.3-0.5-0.1-1-0.3-0.5c-0.3,0.9-1.3,2.9-3.7,5.7c-4.9,5.7-12.1,11-16.1,13.1L312.4,91.2z M232,95.7L222,110.4
	c28.5,13.6,66.3,11.7,98.1-5.4l-7.7-13.8l-7.7-13.8c-20.5,11-44.7,12.1-62.6,3.6L232,95.7z M211.5,49.7l-15.6-6.5
	c-10.3,16.5-9.6,31.8-2.3,43.8c6.6,11,18.2,18.5,28.4,23.4L232,95.7l10.1-14.7c-7.8-3.7-13.5-8.1-16.1-12.4c-2-3.2-2.5-6.7,1-12.4
	L211.5,49.7z M253.3,16.4L255.5,0c-16.2,0.1-30,10.4-38.3,17.8c-9.1,8.3-16.8,18-21.4,25.4l15.6,6.5l15.6,6.5
	c2.9-4.7,8.2-11.5,14.2-16.8c6.8-6.2,10.2-6.6,9.9-6.6L253.3,16.4z M255.3,64.5l15.2,7.1c5.3-7.9,12-22.4,13.9-35.7
	c0.9-6.6,1.1-15.1-2.9-22.5c-4.7-8.6-13.9-13.6-26-13.5l-2.2,16.4l-2.2,16.4c0.5,0-0.1,0.1-1-0.4c-1-0.5-1.5-1.2-1.6-1.5
	c-0.1-0.2,0.5,1.1-0.1,5.1c-1.1,7.9-5.6,17.5-8.2,21.4L255.3,64.5z M198.4,102.4l3,15.7c25.7-6.8,52.6-22.1,69.1-46.5l-15.2-7.1
	l-15.2-7.1c-9.7,14.3-26.5,24.5-44.7,29.4L198.4,102.4z M131.8,51.3l-12.8-10c-13,13-19.2,27.6-15.3,41.7c3.6,12.7,14.5,21,25,26.3
	c10.9,5.4,23.9,8.8,36.2,10.3c12,1.5,25.3,1.4,36.4-1.5l-3-15.7l-3-15.7c-4,1.1-11.5,1.6-20.9,0.4c-9.1-1.1-18.2-3.6-25.1-7
	c-7.3-3.6-9.8-7.1-10.3-8.9c-0.1-0.5-1.1-3.1,5.6-9.9L131.8,51.3z M189.7,26.9l7.7-15.6c-16.2-4.8-32.7-0.4-45.6,6
	c-12.9,6.4-24.4,15.6-32.8,24l12.8,10l12.8,10c6.1-6.2,13.7-12.1,21.2-15.7c7.4-3.6,12.6-4.1,16.3-3L189.7,26.9z M181.6,69.9
	l14.6,7.9c4-5.3,12-16.4,16.3-27.7c2.1-5.6,4.1-13.1,2.7-20.5c-1.7-8.5-7.7-15.4-17.8-18.3l-7.7,15.6l-7.7,15.6c0,0-0.1,0-0.1-0.1
	c-0.1,0-0.2-0.1-0.4-0.2c-0.3-0.2-0.7-0.5-1.1-0.8c-0.8-0.8-1.1-1.6-1.1-2.1c-0.1-0.4,0.2,0.6-1.1,3.8c-2.4,6.3-7.6,13.9-11.3,18.7
	L181.6,69.9z M43.3,134.4l-5.9,16c28.9,5.5,60.8-2.4,88.4-16c27.8-13.6,53.4-34,70.4-56.6l-14.6-7.9L167,62
	c-12.8,16.9-33,33.2-55.2,44.2c-22.4,11-44.7,15.6-62.6,12.2L43.3,134.4z M41.1,32.1l-14.9-7.6C14.8,40.3,3.5,66.5,0.7,90.6
	c-1.4,12.1-0.8,25.1,4.4,36.2c5.5,11.7,16,20.7,32.3,23.7l5.9-16l5.9-16c-5.4-1-8.4-3.5-10.4-7.7c-2.2-4.7-3.1-11.8-2-21
	c2.2-18.5,11.3-39.2,19.1-50L41.1,32.1z M234.7,88.8c-2.1,9,4.1,16.9,13.9,17.7c9.8,0.7,19.5-6,21.6-15L234.7,88.8z M340.6,49.3
	l15.9-9.7L340.6,49.3z M312.4,91.2l7.7,13.8L312.4,91.2z M232,95.7L222,110.4L232,95.7z M211.5,49.7l-15.6-6.5L211.5,49.7z
	 M253.3,16.4L255.5,0L253.3,16.4z M255.3,64.5l15.2,7.1L255.3,64.5z M198.4,102.4l-3-15.7L198.4,102.4z M131.8,51.3l-12.8-10
	L131.8,51.3z M189.7,26.9l-7.7,15.6L189.7,26.9z M181.6,69.9l14.6,7.9L181.6,69.9z M43.3,134.4l-5.9,16L43.3,134.4z M55.9,39.7
	c5.8-8,3.8-17.9-4.4-22.1S32,16.5,26.2,24.5L55.9,39.7z"/>
<path class="st1" d="M340.6,49.3l4.8-2.9c-5.3-8-14.8-10-24.7-8.8c-9.8,1.2-20.7,5.5-30.7,11c-10.1,5.6-19.9,12.6-27.6,19.7
	c-7.4,6.9-13.6,14.6-15.3,21.5l5.3,0.4l5.3,0.4c0.9-3.7,4.9-9.4,11.9-16c6.8-6.3,15.7-12.8,25-17.8c9.3-5.1,18.5-8.6,26-9.5
	c7.3-0.9,12.3,0.7,15.1,4.9L340.6,49.3z M312.4,91.2l2.3,4.1c6.8-3.6,16.9-11,24.1-19.5c7.1-8.3,13.1-19.6,6.6-29.4l-4.8,2.9
	l-4.8,2.9c3,4.5,1,10.7-5.4,18.2c-6.2,7.2-14.9,13.6-20.4,16.6L312.4,91.2z M232,95.7l-3,4.4c24.8,11.8,57.8,10.2,85.7-4.8l-2.3-4.1
	l-2.3-4.1c-24.5,13.1-53.5,14.5-75,4.2L232,95.7z M211.5,49.7l-4.7-2c-7.9,12.7-7.3,23.8-1.9,32.8c5.2,8.7,14.7,15.1,24.1,19.5
	l3-4.4l3-4.4c-8.7-4.1-16.4-9.6-20.4-16.2c-3.8-6.3-4.4-13.9,1.5-23.4L211.5,49.7z M253.3,16.4l0.7-4.9
	c-10.4,0.1-20.6,6.9-28.3,13.9c-8,7.2-14.9,16-18.8,22.4l4.7,2l4.7,2c3.5-5.6,9.6-13.4,16.7-19.8c7.3-6.6,14.3-10.5,19.8-10.5
	L253.3,16.4z M255.3,64.5l4.6,2.1c4.4-6.5,10.3-19.3,11.9-30.7c0.8-5.7,0.7-11.7-1.9-16.4c-2.8-5.1-8.1-8.1-15.9-8.1l-0.7,4.9
	l-0.7,4.9c4.2,0,6.2,1.4,7.3,3.5c1.3,2.4,1.7,6.3,1,11.2c-1.4,9.8-6.6,21.1-10.2,26.4L255.3,64.5z M198.4,102.4l0.9,4.7
	c23.1-6.1,46.5-19.7,60.5-40.5l-4.6-2.1l-4.6-2.1c-12,17.8-32.4,29.8-53.2,35.4L198.4,102.4z M131.8,51.3l-3.8-3
	c-10.8,10.8-14.5,21.2-11.9,30.6c2.5,8.9,10.5,15.5,19.9,20.2c9.5,4.7,21.1,7.8,32.3,9.2c11.1,1.4,22.4,1.2,31-1.1l-0.9-4.7
	l-0.9-4.7c-6.5,1.7-16,2.1-26.3,0.8c-10.3-1.3-20.7-4.1-29-8.2c-8.4-4.2-13.9-9.4-15.5-15c-1.5-5.2,0.1-12.1,9-21L131.8,51.3z
	 M189.7,26.9l2.3-4.7c-11.8-3.5-24.3-0.5-35.3,4.9c-11,5.4-21.1,13.5-28.7,21.1l3.8,3l3.8,3c6.9-7,15.9-14,25.2-18.6
	c9.3-4.6,18.5-6.4,26.5-4L189.7,26.9z M181.6,69.9l4.4,2.4c3.9-5.1,10.9-15,14.5-24.6c1.8-4.8,3-10,2.1-14.7c-1-5-4.4-9-10.6-10.8
	l-2.3,4.7l-2.3,4.7c2.9,0.9,4.1,2.4,4.4,4.4c0.5,2.3-0.1,5.6-1.6,9.7c-3.1,8.1-9.3,16.9-13,21.9L181.6,69.9z M43.3,134.4l-1.8,4.8
	c25,4.7,53.6-2,79.4-14.7c25.8-12.7,49.5-31.6,65.1-52.2l-4.4-2.4l-4.4-2.4c-14.3,18.9-36.4,36.6-60.5,48.5
	c-24.2,11.9-49.9,17.7-71.6,13.6L43.3,134.4z M41.1,32.1l-4.5-2.3c-10.1,14-20.7,38.4-23.3,60.4c-1.3,11.1-0.6,22,3.6,30.8
	c4.3,9,12.1,15.8,24.6,18.1l1.8-4.8l1.8-4.8c-9.2-1.7-14.8-6.5-18.1-13.3c-3.3-7-4-16.1-2.9-26.3c2.4-20.4,12.3-43.1,21.4-55.6
	L41.1,32.1z M247.1,89.7c-0.6,2.7,1.2,5.1,4.2,5.3c2.9,0.2,5.8-1.8,6.5-4.5L247.1,89.7z M340.6,49.3l4.8-2.9L340.6,49.3z
	 M312.4,91.2l2.3,4.1L312.4,91.2z M232,95.7l-3,4.4L232,95.7z M211.5,49.7l-4.7-2L211.5,49.7z M253.3,16.4l0.7-4.9L253.3,16.4z
	 M255.3,64.5l4.6,2.1L255.3,64.5z M198.4,102.4l-0.9-4.7L198.4,102.4z M131.8,51.3l-3.8-3L131.8,51.3z M189.7,26.9l-2.3,4.7
	L189.7,26.9z M181.6,69.9l4.4,2.4L181.6,69.9z M43.3,134.4l-1.8,4.8L43.3,134.4z M45.5,34.4c1.7-2.4,1.1-5.4-1.3-6.6
	c-2.5-1.3-5.9-0.3-7.6,2.1L45.5,34.4z"/>
</svg>
