<?xml version="1.0" encoding="utf-8"?>
<!-- Generator: Adobe Illustrator 23.0.6, SVG Export Plug-In . SVG Version: 6.00 Build 0)  -->
<svg version="1.1" id="Layer_1" xmlns="http://www.w3.org/2000/svg" xmlns:xlink="http://www.w3.org/1999/xlink" x="0px" y="0px"
	 viewBox="0 0 364.1 251.8" style="enable-background:new 0 0 364.1 251.8;" xml:space="preserve">
<style type="text/css">
	.st0{fill:#FFFFFF;stroke:#000000;stroke-width:3;stroke-miterlimit:10;}
	.st1{fill:none;stroke:#000000;stroke-width:3;stroke-miterlimit:10;}
	.st2{fill:#CF2E27;stroke:#000000;stroke-miterlimit:10;}
	.st3{stroke:#000000;stroke-width:3;stroke-miterlimit:10;}
</style>
<path d="M129.6,80.6l37.9-18.2C164.2,27.1,143.8,0,119.1,0c-27,0-48.9,32.5-48.9,72.6s21.9,72.6,48.9,72.6c21.1,0,39-19.8,45.9-47.6
	L129.6,80.6z"/>
<path d="M274.4,80.6l38-18.2C309,27.1,288.7,0,264,0c-27,0-48.9,32.5-48.9,72.6s21.9,72.6,48.9,72.6c21.1,0,39-19.8,45.9-47.6
	L274.4,80.6z"/>
<path class="st0" d="M29.2,176.9c0,0,4.9-17.2,37.5-17.2s37.2,17.2,37.2,17.2s12.1,44.7,93.2,44.9c80.8,0.2,79.6-37.7,81-45.5
	c0,0,7.9-16.7,33.6-16.7c30.6,0,34.6,14.2,34.6,14.2S359,251.3,195,251.3S29.2,176.9,29.2,176.9z"/>
<path class="st1" d="M34.4,193.6l71-13.3"/>
<path class="st1" d="M62.1,222.8l57.1-24.4"/>
<path class="st1" d="M114.9,243.5l31.7-29.5"/>
<path class="st1" d="M176.3,250.9l11.6-29.4"/>
<path class="st1" d="M240.7,248.9l-20.5-28.3"/>
<path class="st1" d="M299.5,234.8l-48.9-21.5"/>
<path class="st1" d="M328.3,216.6L268.4,201"/>
<path class="st1" d="M345.1,189l-67.9-6.1"/>
<path class="st2" d="M154.8,157.9c0,0,9.5-12.7,29.8-12.7s30.6,12.7,30.6,12.7s-4-6.4-30.2-6.4C158.7,151.6,154.8,157.9,154.8,157.9
	z"/>
<path class="st3" d="M0.5,157.9c0,0,4.3-14.5,23.7-19.7s33.8,4.3,33.8,4.3s-6.1-7.6-31.1-0.9C2,148.3,0.5,157.9,0.5,157.9z"/>
<path class="st3" d="M363.6,158.7c0,0-4.3-14.5-23.7-19.7c-19.4-5.2-33.8,4.3-33.8,4.3s6.1-7.6,31.1-0.9
	C362.1,149.1,363.6,158.7,363.6,158.7z"/>
</svg>
