<?xml version="1.0" encoding="utf-8"?>
<!-- Generator: Adobe Illustrator 23.0.6, SVG Export Plug-In . SVG Version: 6.00 Build 0)  -->
<svg version="1.1" id="Layer_1" xmlns="http://www.w3.org/2000/svg" xmlns:xlink="http://www.w3.org/1999/xlink" x="0px" y="0px"
	 viewBox="0 0 93.4 93.4" style="enable-background:new 0 0 93.4 93.4;" xml:space="preserve">
<g>
	<path d="M44.3,93.4c-0.9-5.3-3.2-10.9-7.1-17c-3.8-6.2-9.2-11.9-16.3-17.2C13.9,54,7,50.6,0,49.2V44c6.9-1.6,13.5-4.6,19.8-9
		c6.4-4.5,11.8-9.8,16.1-16.1c4.4-6.4,7.2-12.7,8.4-19h5.1c0.7,4.1,2.2,8.2,4.4,12.5c2.2,4.2,5,8.3,8.4,12.2
		c3.5,3.8,7.4,7.3,11.7,10.3c6.4,4.5,12.9,7.5,19.6,9v5.1c-4.5,0.9-9.1,2.7-13.9,5.5c-4.7,2.8-9.1,6-13.1,9.9
		c-4.1,3.7-7.4,7.7-10,11.8c-3.8,6.1-6.2,11.8-7.1,17.2H44.3z"/>
</g>
</svg>
